<svg xmlns="http://www.w3.org/2000/svg" xmlns:xlink="http://www.w3.org/1999/xlink" version="1.1" x="0px" y="0px" viewBox="0 0 100 125" style="enable-background:new 0 0 100 100;" xml:space="preserve"><g><path d="M71.495,52.686v-7.484H61.413c10.996-0.926,19.628-10.142,19.628-21.377c0-11.851-9.602-21.455-21.453-21.455   c-8.299,0-15.497,4.711-19.067,11.605C36.954,7.08,29.758,2.369,21.458,2.369C9.607,2.369,0,11.974,0,23.824   C0,35.06,8.637,44.275,19.633,45.202H4.767v47.664h66.729v-7.484L100,97.631V40.436L71.495,52.686z M59.588,7.136   c9.197,0,16.688,7.486,16.688,16.688s-7.49,16.689-16.688,16.689c-9.078,0-16.681-7.365-16.681-16.689   C42.907,14.512,50.51,7.136,59.588,7.136z M57.782,45.202H23.264c7.528-0.627,13.951-5.139,17.257-11.528   C43.829,40.063,50.254,44.574,57.782,45.202z M4.767,23.824c0-9.202,7.484-16.688,16.691-16.688c9.069,0,16.677,7.41,16.677,16.683   c0,9.262-7.608,16.695-16.677,16.695C12.251,40.513,4.767,33.026,4.767,23.824z M66.729,88.099H9.533V49.968h57.196V88.099z    M95.232,90.396L71.495,80.192V57.874l23.737-10.203V90.396z M28.612,23.746c0-3.952-3.207-7.156-7.154-7.156   c-3.957,0-7.159,3.205-7.159,7.156c0,3.954,3.202,7.157,7.159,7.157C25.405,30.903,28.612,27.7,28.612,23.746z M19.065,23.746   c0-1.317,1.07-2.39,2.393-2.39c1.313,0,2.388,1.072,2.388,2.39s-1.075,2.391-2.388,2.391   C20.136,26.137,19.065,25.063,19.065,23.746z M59.588,30.903c3.947,0,7.154-3.203,7.154-7.157c0-3.952-3.207-7.156-7.154-7.156   c-3.956,0-7.158,3.205-7.158,7.156C52.43,27.7,55.632,30.903,59.588,30.903z M59.588,21.356c1.313,0,2.389,1.072,2.389,2.39   s-1.075,2.391-2.389,2.391c-1.321,0-2.393-1.073-2.393-2.391S58.267,21.356,59.588,21.356z"/></g><text x="0" y="115" fill="#000000" font-size="5px" font-weight="bold" font-family="'Helvetica Neue', Helvetica, Arial-Unicode, Arial, Sans-serif">Created by b farias</text><text x="0" y="120" fill="#000000" font-size="5px" font-weight="bold" font-family="'Helvetica Neue', Helvetica, Arial-Unicode, Arial, Sans-serif">from the Noun Project</text></svg>